<svg xmlns="http://www.w3.org/2000/svg" version="1.1" xmlns:xlink="http://www.w3.org/1999/xlink" xmlns:svgjs="http://svgjs.dev/svgjs" width="1000" height="750" viewBox="0 0 1000 750"><rect width="1000" height="750" fill="#ffffff"></rect><g transform="matrix(0.5191111111111111,0,0,0.5191111111111111,240.4444444444445,83)"><svg viewBox="0 0 320 360" data-background-color="#ffffff" preserveAspectRatio="xMidYMid meet" height="1125" width="1000" xmlns="http://www.w3.org/2000/svg" xmlns:xlink="http://www.w3.org/1999/xlink"><g id="tight-bounds" transform="matrix(1,0,0,1,0,0)"><svg viewBox="0 0 320 360" height="360" width="320"><g><svg></svg></g><g><svg viewBox="0 0 320 360" height="360" width="320"><g><path xmlns="http://www.w3.org/2000/svg" d="M20.961 227.22l3.726 4.658-1.863-6.056c-0.466-2.795-3.726 0.466-1.863 1.398M25.153 224.425c1.397 2.329 2.795 4.658 2.795 6.987 0 3.261 2.795 4.658 5.123 5.589-3.261-3.726-5.124-13.974-7.918-12.576M204.017 26.929c7.918 0 15.371-0.932 23.756 0.931 20.495 5.124 37.729 15.371 49.374 29.811l32.606 52.169c1.397 13.042 4.192 27.482 3.726 43.319 3.261 0 2.795-4.658 6.521-5.59-3.726 9.316-5.59 20.961-6.521 34.469-2.329-7.453 0-18.632 0.466-24.687-3.261 5.124-5.124 1.397-5.124-0.932 0.466-3.726-1.397-3.261-2.795-4.658-5.124-4.658-8.384-9.782-12.11-17.7 2.329-6.055 2.795-14.905-4.658-19.563-2.329-1.397-5.124-3.726-6.521-7.453-1.863-5.124-5.124-11.179-4.193-19.097 0.466-2.329-6.987 5.124-11.179 1.863-18.166-12.576-36.332-27.016-58.224-39.127-11.645 0-20.029-4.192-24.221-9.316-3.726-4.658-0.932-10.713 4.658-11.179 3.261 0 6.987-0.932 9.782 0.932 0.466-1.863 2.329-4.192 4.657-4.192M157.904 16.215l0.932 0.466c4.658 0.932 6.987 7.453 12.11 5.124 0 3.261 0.466 6.521-0.466 8.85-1.397 3.726-5.59 3.726-8.85 3.726-31.208-1.863-49.374 11.179-68.471 22.358-5.124 3.261-10.713 5.59-14.906 9.782-20.029 18.632-41.921 35.866-47.045 70.335l-4.192 38.195c-0.466 4.192-5.124 8.384-4.192 13.508l3.26 22.824c-3.261-3.261-5.124 0.932-4.192 2.795 0.466 1.397 2.329 6.055 5.124 1.863 3.726 6.987 7.453 20.495 12.576 26.55 15.837 18.632 36.332 35.4 53.101 52.169 4.192-0.932 7.453-0.932 8.384-3.727 1.397 2.795-1.397 5.59-3.726 6.056 7.453 4.658 15.837 8.85 27.016 9.781 14.44 0.932 27.948 3.261 40.524 6.522 6.521-1.863 13.042-2.795 20.029-3.261 2.329 0 3.726-3.726 6.521-4.658l0.466-4.658c2.795 4.192 2.329-1.397 0.466-4.192 3.261 2.795 4.192 5.124 5.589 6.987 0-1.397 3.726-6.521 3.727-0.466l0.931-6.055c1.397-0.932 1.863 5.124 3.261 0.931 1.397-4.192 4.192-0.932 6.987-2.329-0.932 1.863-0.466 5.59 2.794 3.261l3.727-3.261c2.329 5.59 6.055 3.261 7.918 2.329 20.495-13.042 40.99-28.413 60.553-43.784l-0.466 6.055 2.329-7.453c2.329 2.329 4.192 0.466 5.124-0.931 2.795-4.658 6.521-9.316 12.577-13.508-7.453 20.029-16.303 35.866-27.482 48.908l-4.658 5.59c0 3.261-0.932 7.453-4.658 7.918-1.863 0.466-5.59-0.932-8.384 1.863-1.397 1.863 3.261 5.59-0.466 2.795-3.261-2.329-6.521 0-10.248 0.932-2.795 0.932 1.863 3.726 2.795 5.589 0.932 1.863 1.863 3.726 1.398 6.056l-5.124-5.59c-6.055 3.261-9.782 9.316-14.906 13.974-2.329 1.863-1.397 5.124-1.397 7.918-3.261 0-6.987-0.932-8.85 0.932-1.397 1.863-0.932 4.658-0.932 7.453-4.658-0.466-5.124-7.453-9.315-6.056-4.192 0.932-8.85 1.397-12.577 3.727 2.795 5.59-4.658 2.329-3.726 3.26-6.987-4.192-13.042-7.453-20.495-4.658-15.837-5.124-35.4-2.795-49.84-0.931 0-2.329 0.466-4.658-0.466-5.124-0.932 2.329-3.726 1.397-3.26 1.397-8.85-6.055-17.7-9.782-27.016-14.905-8.384 0.932-16.303-3.261-18.632-5.59-6.521-6.055-13.974-2.795-20.029-4.192-13.042-3.261-17.7-16.769-19.098-26.084-0.932-4.658-4.658-6.521-6.055-6.056-6.055-19.563-15.371-37.263-22.824-55.429-1.863-4.658-1.397-9.316-1.397-14.44 2.329 0.932 4.658 0.466 4.192-2.794-2.329-15.371-7.918-27.016-13.974-38.195 3.261-15.837 3.726-34.469 11.179-48.443 6.521-12.576 18.632-19.098 27.016-29.811 2.795-3.726 2.795-8.85 5.59-12.11 9.316-9.316 18.632-19.098 28.879-27.482 4.658-3.726 10.247 0 17.234-1.397 2.329-8.384 11.645-15.837 20.495-13.508 3.726 0.932 11.179-8.85 13.508-9.782 3.726-1.397 1.863 3.726 1.863 6.987 8.85-6.987 20.961-10.713 32.14-14.906" fill="#ff0000" fill-rule="nonzero" stroke="none" stroke-width="1" stroke-linecap="butt" stroke-linejoin="miter" stroke-miterlimit="10" stroke-dasharray="" stroke-dashoffset="0" font-family="none" font-weight="none" font-size="none" text-anchor="none" style="mix-blend-mode: normal" data-fill-palette-color="tertiary"></path></g><g transform="matrix(1,0,0,1,64,124.59453551540982)"><svg viewBox="0 0 192 110.81092896918037" height="110.81092896918037" width="192"><g><svg viewBox="0 0 192 110.81092896918037" height="110.81092896918037" width="192"><g><svg viewBox="0 0 192 110.81092896918037" height="110.81092896918037" width="192"><g><svg viewBox="0 0 192 110.81092896918037" height="110.81092896918037" width="192"><g id="textblocktransform"><svg viewBox="0 0 192 110.81092896918037" height="110.81092896918037" width="192" id="textblock"><g><svg viewBox="0 0 192 75.3260219341974" height="75.3260219341974" width="192"><g transform="matrix(1,0,0,1,0,0)"><svg width="192" viewBox="4.449999809265137 -38.849998474121094 100.29000091552734 39.349998474121094" height="75.3260219341974" data-palette-color="#ff0000"><path d="M4.45 0L4.45-36.25 9.9-36.25 9.9 0 4.45 0ZM27.85-19.05L27.85-19.05 25.6-16.05Q25.55-16.1 25.25-16.3 24.95-16.5 24.47-16.7 24-16.9 23.37-17.07 22.75-17.25 22.1-17.25L22.1-17.25Q21.25-17.25 20.42-16.85 19.6-16.45 19.6-15.35L19.6-15.35Q19.6-14.4 20.27-13.8 20.95-13.2 21.95-12.73 22.95-12.25 24.12-11.75 25.3-11.25 26.3-10.53 27.3-9.8 27.97-8.72 28.65-7.65 28.65-6L28.65-6Q28.65-3.2 26.72-1.38 24.8 0.45 21.45 0.45L21.45 0.45Q19.5 0.45 17.62-0.23 15.75-0.9 14.6-2.2L14.6-2.2Q14.95-2.55 15.37-3.1 15.8-3.65 16.22-4.15 16.65-4.65 16.92-4.98 17.2-5.3 17.25-5.3L17.25-5.3Q17.25-5.25 17.62-5 18-4.75 18.6-4.48 19.2-4.2 19.95-3.98 20.7-3.75 21.45-3.75L21.45-3.75Q22.65-3.75 23.5-4.35 24.35-4.95 24.35-5.95L24.35-5.95Q24.35-6.85 23.67-7.38 23-7.9 22-8.35 21-8.8 19.8-9.28 18.6-9.75 17.6-10.5 16.6-11.25 15.92-12.38 15.25-13.5 15.25-15.3L15.25-15.3Q15.25-17 15.87-18.15 16.5-19.3 17.47-20.03 18.45-20.75 19.65-21.08 20.85-21.4 21.95-21.4L21.95-21.4Q23.4-21.4 25.05-20.8 26.7-20.2 27.85-19.05ZM37.5-38.85L37.5 0 33.24 0 33.24-38.85 37.5-38.85ZM42.09-10.25L42.09-10.25Q42.09-12.55 42.97-14.58 43.84-16.6 45.34-18.13 46.84-19.65 48.82-20.55 50.79-21.45 53.04-21.45L53.04-21.45Q54.54-21.45 55.79-21.08 57.04-20.7 57.94-20.15 58.84-19.6 59.39-19 59.94-18.4 60.14-17.95L60.14-17.95 60.34-20.9 64.44-20.9 64.44 0 60.14 0 60.14-2.65Q59.89-2.25 59.34-1.7 58.79-1.15 57.92-0.68 57.04-0.2 55.84 0.15 54.64 0.5 53.09 0.5L53.09 0.5Q50.69 0.5 48.67-0.38 46.64-1.25 45.19-2.73 43.74-4.2 42.92-6.15 42.09-8.1 42.09-10.25ZM46.39-10.5L46.39-10.5Q46.39-9.05 46.92-7.8 47.44-6.55 48.34-5.65 49.24-4.75 50.49-4.23 51.74-3.7 53.24-3.7L53.24-3.7Q54.74-3.7 56.02-4.23 57.29-4.75 58.22-5.68 59.14-6.6 59.64-7.83 60.14-9.05 60.14-10.5L60.14-10.5Q60.14-11.95 59.64-13.18 59.14-14.4 58.22-15.3 57.29-16.2 56.02-16.73 54.74-17.25 53.24-17.25L53.24-17.25Q51.74-17.25 50.49-16.73 49.24-16.2 48.34-15.3 47.44-14.4 46.92-13.18 46.39-11.95 46.39-10.5ZM70.44 0L70.44-20.9 74.19-20.9Q74.29-19.35 74.37-18.07 74.44-16.8 74.54-15.55L74.54-15.55Q75.69-18.25 77.57-19.83 79.44-21.4 82.59-21.45L82.59-21.45Q85.64-21.45 87.49-19.9 89.34-18.35 89.64-15.85L89.64-15.85Q90.89-18.4 92.72-19.9 94.54-21.4 97.64-21.45L97.64-21.45Q100.89-21.45 102.77-19.7 104.64-17.95 104.74-15.2L104.74-15.2 104.74 0 100.44 0 100.44-13.25Q100.34-14.85 99.37-15.98 98.39-17.1 96.19-17.2L96.19-17.2Q93.19-17.2 91.49-15.28 89.79-13.35 89.69-10.35L89.69-10.35 89.69 0 85.44 0 85.44-13.25Q85.34-14.85 84.32-15.98 83.29-17.1 81.19-17.2L81.19-17.2Q79.69-17.2 78.49-16.68 77.29-16.15 76.44-15.25 75.59-14.35 75.14-13.1 74.69-11.85 74.69-10.35L74.69-10.35 74.69 0 70.44 0Z" opacity="1" transform="matrix(1,0,0,1,0,0)" fill="#ff0000" class="wordmark-text-0" data-fill-palette-color="primary" id="text-0"></path></svg></g></svg></g><g transform="matrix(1,0,0,1,0,86.31789635892322)"><svg viewBox="0 0 192 24.493032610257146" height="24.493032610257146" width="192"><g transform="matrix(1,0,0,1,0,0)"><svg width="192" viewBox="3.75 -35.400001525878906 348.010009765625 44.400001525878906" height="24.493032610257146" data-palette-color="#ff0000"><path d="M16-24.95Q19.2-24.95 21.65-23.35 24.1-21.75 25.45-18.88 26.8-16 26.8-12.2L26.8-12.2Q26.8-8.4 25.45-5.58 24.1-2.75 21.68-1.2 19.25 0.35 16 0.35L16 0.35Q13.15 0.35 11.03-0.9 8.9-2.15 7.8-4.45L7.8-4.45 7.8 9 3.75 9 3.75-24.35 7.8-24.35 7.8-20.15Q8.9-22.45 11.03-23.7 13.15-24.95 16-24.95L16-24.95ZM15.2-3Q18.75-3 20.7-5.4 22.65-7.8 22.65-12.2L22.65-12.2Q22.65-16.6 20.7-19.07 18.75-21.55 15.2-21.55L15.2-21.55Q11.65-21.55 9.73-19.15 7.8-16.75 7.8-12.3L7.8-12.3Q7.8-7.85 9.73-5.43 11.65-3 15.2-3L15.2-3ZM53.25-13.05L53.25-11.55 35.45-11.55Q35.65-7.3 37.75-5.13 39.85-2.95 43.7-2.95L43.7-2.95Q47.95-2.95 51.5-5.85L51.5-5.85 52.85-2.9Q51.25-1.4 48.75-0.53 46.25 0.35 43.65 0.35L43.65 0.35Q37.95 0.35 34.67-3 31.4-6.35 31.4-12.25L31.4-12.25Q31.4-16 32.85-18.88 34.3-21.75 36.92-23.35 39.55-24.95 42.9-24.95L42.9-24.95Q47.75-24.95 50.5-21.78 53.25-18.6 53.25-13.05L53.25-13.05ZM42.95-21.8Q39.75-21.8 37.82-19.8 35.9-17.8 35.55-14.15L35.55-14.15 49.7-14.15Q49.6-17.85 47.85-19.83 46.1-21.8 42.95-21.8L42.95-21.8ZM72.65-24.95L73-21.45 70.35-21.2Q66.6-20.85 64.92-18.85 63.25-16.85 63.25-13.9L63.25-13.9 63.25 0 59.2 0 59.2-24.35 63.15-24.35 63.15-20.1Q65.2-24.35 71.2-24.85L71.2-24.85 72.65-24.95ZM84.19-25.7L84.19-24.35 91.09-24.35 91.09-21.15 84.19-21.15 84.19 0 80.14 0 80.14-21.15 75.39-21.15 75.39-24.35 80.14-24.35 80.14-25.15Q80.14-30 82.57-32.5 84.99-35 90.04-35.3L90.04-35.3 92.04-35.4 92.34-32.25 90.04-32.1Q86.99-31.9 85.59-30.38 84.19-28.85 84.19-25.7L84.19-25.7ZM115.34-13.05L115.34-11.55 97.54-11.55Q97.74-7.3 99.84-5.13 101.94-2.95 105.79-2.95L105.79-2.95Q110.04-2.95 113.59-5.85L113.59-5.85 114.94-2.9Q113.34-1.4 110.84-0.53 108.34 0.35 105.74 0.35L105.74 0.35Q100.04 0.35 96.77-3 93.49-6.35 93.49-12.25L93.49-12.25Q93.49-16 94.94-18.88 96.39-21.75 99.02-23.35 101.64-24.95 104.99-24.95L104.99-24.95Q109.84-24.95 112.59-21.78 115.34-18.6 115.34-13.05L115.34-13.05ZM105.04-21.8Q101.84-21.8 99.92-19.8 97.99-17.8 97.64-14.15L97.64-14.15 111.79-14.15Q111.69-17.85 109.94-19.83 108.19-21.8 105.04-21.8L105.04-21.8ZM131.59 0.35Q127.99 0.35 125.34-1.2 122.69-2.75 121.26-5.58 119.84-8.4 119.84-12.2L119.84-12.2Q119.84-16 121.31-18.88 122.79-21.75 125.46-23.35 128.14-24.95 131.74-24.95L131.74-24.95Q134.19-24.95 136.54-24.08 138.89-23.2 140.34-21.75L140.34-21.75 138.99-18.75Q135.54-21.55 131.99-21.55L131.99-21.55Q128.24-21.55 126.14-19.1 124.04-16.65 124.04-12.2L124.04-12.2Q124.04-7.8 126.14-5.4 128.24-3 131.99-3L131.99-3Q135.54-3 138.99-5.8L138.99-5.8 140.34-2.8Q138.79-1.35 136.44-0.5 134.09 0.35 131.59 0.35L131.59 0.35ZM155.99-2.9Q157.09-2.9 158.19-3.05L158.19-3.05 157.99 0.15Q156.84 0.35 155.49 0.35L155.49 0.35Q151.09 0.35 148.86-1.95 146.64-4.25 146.64-8.35L146.64-8.35 146.64-21.15 141.89-21.15 141.89-24.35 146.64-24.35 146.64-31.75 150.69-31.75 150.69-24.35 157.59-24.35 157.59-21.15 150.69-21.15 150.69-8.65Q150.69-2.9 155.99-2.9L155.99-2.9ZM166.33 0L162.28 0 162.28-35.25 166.33-35.25 166.33 0ZM183.08-4.4L191.33-24.3 195.38-24.3 180.98 9 176.83 9 180.93-0.3 170.63-24.3 174.93-24.3 183.08-4.4ZM220.73 0.35Q214.58 0.35 210.98-2.8L210.98-2.8 212.33-5.8Q214.28-4.25 216.3-3.58 218.33-2.9 220.88-2.9L220.88-2.9Q223.58-2.9 225-3.83 226.43-4.75 226.43-6.5L226.43-6.5Q226.43-7.95 225.48-8.8 224.53-9.65 222.33-10.15L222.33-10.15 218.23-11.1Q215.13-11.8 213.48-13.5 211.83-15.2 211.83-17.7L211.83-17.7Q211.83-20.95 214.38-22.95 216.93-24.95 221.18-24.95L221.18-24.95Q223.73-24.95 226.03-24.13 228.33-23.3 229.88-21.75L229.88-21.75 228.53-18.8Q225.18-21.65 221.18-21.65L221.18-21.65Q218.63-21.65 217.2-20.68 215.78-19.7 215.78-17.95L215.78-17.95Q215.78-16.5 216.65-15.63 217.53-14.75 219.48-14.3L219.48-14.3 223.63-13.3Q227.03-12.5 228.68-10.88 230.33-9.25 230.33-6.65L230.33-6.65Q230.33-3.45 227.75-1.55 225.18 0.35 220.73 0.35L220.73 0.35ZM240.52 0L236.47 0 236.47-24.35 240.52-24.35 240.52 0ZM236.07-30.35L236.07-34.9 240.97-34.9 240.97-30.35 236.07-30.35ZM275.17-24.95Q283.27-24.95 283.27-15.3L283.27-15.3 283.27 0 279.22 0 279.22-15.1Q279.22-18.45 278.05-20 276.87-21.55 274.27-21.55L274.27-21.55Q271.22-21.55 269.47-19.5 267.72-17.45 267.72-13.9L267.72-13.9 267.72 0 263.67 0 263.67-15.1Q263.67-18.5 262.47-20.03 261.27-21.55 258.67-21.55L258.67-21.55Q255.62-21.55 253.87-19.5 252.12-17.45 252.12-13.9L252.12-13.9 252.12 0 248.07 0 248.07-24.35 252.07-24.35 252.07-20.5Q253.17-22.65 255.12-23.8 257.07-24.95 259.62-24.95L259.62-24.95Q265.27-24.95 267.07-20.15L267.07-20.15Q268.12-22.4 270.27-23.68 272.42-24.95 275.17-24.95L275.17-24.95ZM302.92-24.95Q306.12-24.95 308.57-23.35 311.02-21.75 312.37-18.88 313.72-16 313.72-12.2L313.72-12.2Q313.72-8.4 312.37-5.58 311.02-2.75 308.59-1.2 306.17 0.35 302.92 0.35L302.92 0.35Q300.07 0.35 297.94-0.9 295.82-2.15 294.72-4.45L294.72-4.45 294.72 9 290.67 9 290.67-24.35 294.72-24.35 294.72-20.15Q295.82-22.45 297.94-23.7 300.07-24.95 302.92-24.95L302.92-24.95ZM302.12-3Q305.67-3 307.62-5.4 309.57-7.8 309.57-12.2L309.57-12.2Q309.57-16.6 307.62-19.07 305.67-21.55 302.12-21.55L302.12-21.55Q298.57-21.55 296.64-19.15 294.72-16.75 294.72-12.3L294.72-12.3Q294.72-7.85 296.64-5.43 298.57-3 302.12-3L302.12-3ZM323.82 0L319.77 0 319.77-35.25 323.82-35.25 323.82 0ZM351.76-13.05L351.76-11.55 333.96-11.55Q334.16-7.3 336.26-5.13 338.36-2.95 342.21-2.95L342.21-2.95Q346.46-2.95 350.01-5.85L350.01-5.85 351.36-2.9Q349.76-1.4 347.26-0.53 344.76 0.35 342.16 0.35L342.16 0.35Q336.46 0.35 333.19-3 329.91-6.35 329.91-12.25L329.91-12.25Q329.91-16 331.36-18.88 332.81-21.75 335.44-23.35 338.06-24.95 341.41-24.95L341.41-24.95Q346.26-24.95 349.01-21.78 351.76-18.6 351.76-13.05L351.76-13.05ZM341.46-21.8Q338.26-21.8 336.34-19.8 334.41-17.8 334.06-14.15L334.06-14.15 348.21-14.15Q348.11-17.85 346.36-19.83 344.61-21.8 341.46-21.8L341.46-21.8Z" opacity="1" transform="matrix(1,0,0,1,0,0)" fill="#ff0000" class="slogan-text-1" data-fill-palette-color="secondary" id="text-1"></path></svg></g></svg></g></svg></g></svg></g><g></g></svg></g></svg></g></svg></g></svg></g><defs></defs></svg><rect width="320" height="360" fill="none" stroke="none" visibility="hidden"></rect></g></svg></g></svg>